<?xml version="1.0" standalone="no"?>
<!DOCTYPE svg PUBLIC "-//W3C//DTD SVG 20010904//EN"
 "http://www.w3.org/TR/2001/REC-SVG-20010904/DTD/svg10.dtd">
<svg version="1.0" xmlns="http://www.w3.org/2000/svg"
 width="56.000000pt" height="48.000000pt" viewBox="0 0 56.000000 48.000000"
 preserveAspectRatio="xMidYMid meet">

<g transform="translate(0.000000,48.000000) scale(0.100000,-0.100000)"
fill="#000000" stroke="none">
<path d="M47 442 l42 -37 -29 -34 c-30 -36 -55 -117 -49 -161 3 -20 11 -26 37
-28 32 -3 32 -3 32 40 0 24 8 58 18 77 34 67 37 66 185 -66 96 -86 131 -123
121 -127 -9 -3 -69 -6 -135 -6 -112 0 -119 1 -119 20 0 11 -3 20 -6 20 -8 0
-124 -70 -124 -75 0 -1 22 -17 48 -34 53 -34 82 -39 82 -16 0 13 21 15 125 15
89 0 136 4 161 15 39 16 56 11 88 -24 26 -29 36 -26 36 8 0 20 -8 35 -26 49
-26 18 -26 19 -9 45 10 15 20 55 23 92 l5 65 -37 0 -36 0 0 -48 c0 -27 -6 -56
-13 -66 -13 -17 -21 -12 -118 74 -57 51 -111 99 -119 106 -12 12 0 14 82 14
89 0 96 -1 101 -22 6 -21 7 -21 33 -3 15 10 42 26 61 37 18 11 33 23 33 26 -1
9 -105 72 -119 72 -6 0 -11 -9 -11 -20 0 -19 -7 -20 -138 -20 -135 0 -139 1
-162 25 -18 19 -33 25 -64 25 l-41 -1 42 -37z"/>
</g>
</svg>
