<?xml version="1.0" standalone="no"?>
<!DOCTYPE svg PUBLIC "-//W3C//DTD SVG 20010904//EN"
 "http://www.w3.org/TR/2001/REC-SVG-20010904/DTD/svg10.dtd">
<svg version="1.0" xmlns="http://www.w3.org/2000/svg"
 width="56.000000pt" height="48.000000pt" viewBox="0 0 56.000000 48.000000"
 preserveAspectRatio="xMidYMid meet">

<g transform="translate(0.000000,48.000000) scale(0.100000,-0.100000)"
fill="#000000" stroke="none">
<path d="M410 450 c0 -19 -7 -20 -130 -20 -146 0 -189 -13 -229 -68 -24 -34
-44 -108 -39 -148 2 -25 8 -29 35 -32 32 -3 33 -2 33 38 0 51 21 103 51 124
19 13 49 16 150 16 121 0 127 -1 132 -22 6 -21 7 -21 33 -3 15 10 42 26 61 37
18 11 33 23 33 26 -1 9 -105 72 -119 72 -6 0 -11 -9 -11 -20z"/>
<path d="M253 321 c-22 -11 -33 -23 -33 -39 0 -19 4 -21 25 -16 l25 6 0 -86 0
-86 -60 0 c-53 0 -60 2 -60 20 0 11 -3 20 -6 20 -8 0 -124 -70 -124 -75 0 -1
22 -17 48 -34 53 -34 82 -39 82 -16 0 13 21 15 127 15 109 0 133 3 171 21 61
30 93 82 99 164 l6 65 -37 0 -36 0 0 -45 c0 -84 -47 -135 -125 -135 l-35 0 0
120 c0 133 -1 134 -67 101z"/>
</g>
</svg>
