<?xml version="1.0" standalone="no"?>
<!DOCTYPE svg PUBLIC "-//W3C//DTD SVG 20010904//EN"
 "http://www.w3.org/TR/2001/REC-SVG-20010904/DTD/svg10.dtd">
<svg version="1.0" xmlns="http://www.w3.org/2000/svg"
 width="920.000000pt" height="920.000000pt" viewBox="0 0 920.000000 920.000000"
 preserveAspectRatio="xMidYMid meet">

<g transform="translate(0.000000,920.000000) scale(0.100000,-0.100000)"
fill="red" stroke="none">
<path d="M4280 9189 c-599 -44 -1170 -197 -1695 -454 -1583 -774 -2585 -2378
-2585 -4135 1 -1473 704 -2853 1897 -3721 355 -258 795 -489 1182 -620 174
-59 301 -25 357 95 23 50 24 56 24 346 0 162 -3 366 -7 453 l-6 158 -24 -6
c-167 -41 -550 -58 -715 -30 -264 44 -487 157 -637 321 -78 86 -113 142 -186
303 -139 310 -272 483 -469 616 -152 102 -203 158 -194 216 8 55 137 89 264
69 253 -40 471 -202 657 -487 48 -72 112 -159 144 -194 271 -293 671 -365
1100 -200 l81 32 11 64 c34 191 127 391 234 502 22 24 39 44 36 46 -2 2 -58
11 -124 21 -488 70 -857 196 -1143 388 -473 318 -742 832 -802 1532 -16 192
-14 481 5 611 50 337 178 627 391 886 35 42 61 79 59 81 -11 11 -58 197 -71
283 -18 118 -20 340 -4 457 15 112 55 273 93 383 l32 90 88 3 c264 9 642 -134
1059 -401 l117 -75 76 19 c678 174 1475 175 2133 3 l93 -24 57 38 c321 216
690 384 938 427 87 15 229 20 258 9 20 -8 87 -212 116 -354 53 -258 40 -563
-34 -796 l-23 -70 44 -50 c24 -27 75 -95 114 -151 167 -244 264 -507 300 -807
15 -130 6 -552 -16 -706 -51 -365 -161 -679 -324 -922 -180 -269 -387 -445
-706 -599 -266 -129 -553 -206 -988 -264 l-48 -6 53 -59 c122 -135 202 -323
240 -562 10 -64 12 -245 10 -796 -3 -514 -1 -726 8 -761 35 -146 179 -198 371
-132 899 306 1717 934 2281 1751 191 278 373 625 498 955 370 976 397 2066 75
3055 -230 705 -599 1304 -1130 1835 -659 659 -1472 1090 -2390 1264 -374 71
-806 97 -1175 70z"/>
</g>
</svg>
