<?xml version="1.0" standalone="no"?>
<!DOCTYPE svg PUBLIC "-//W3C//DTD SVG 20010904//EN"
 "http://www.w3.org/TR/2001/REC-SVG-20010904/DTD/svg10.dtd">
<svg version="1.0" xmlns="http://www.w3.org/2000/svg"
 width="113.000000pt" height="114.000000pt" viewBox="0 0 113.000000 114.000000"
 preserveAspectRatio="xMidYMid meet">

<g transform="translate(0.000000,114.000000) scale(0.100000,-0.100000)"
fill="#000000" stroke="none">
<path d="M431 1124 c-187 -50 -347 -212 -396 -401 -19 -73 -19 -212 0 -283 49
-185 199 -340 382 -395 301 -91 626 101 699 411 33 140 3 311 -75 433 -69 107
-202 203 -326 236 -73 19 -212 18 -284 -1z m289 -21 c179 -49 326 -200 375
-383 19 -71 19 -200 0 -273 -37 -141 -145 -278 -272 -345 -199 -104 -449 -71
-611 81 -117 110 -173 236 -173 392 -1 109 13 168 59 260 111 223 374 336 622
268z"/>
<path d="M230 579 c0 -245 3 -310 13 -306 6 3 64 34 127 70 l115 66 5 -74 5
-73 262 146 c144 81 263 150 265 155 2 4 -116 79 -262 166 l-265 158 -5 -73
-5 -73 -123 75 c-68 41 -125 74 -127 74 -3 0 -5 -140 -5 -311z"/>
</g>
</svg>
