<?xml version="1.0" standalone="no"?>
<!DOCTYPE svg PUBLIC "-//W3C//DTD SVG 20010904//EN"
 "http://www.w3.org/TR/2001/REC-SVG-20010904/DTD/svg10.dtd">
<svg version="1.0" xmlns="http://www.w3.org/2000/svg"
 width="120.000000pt" height="115.000000pt" viewBox="0 0 120.000000 115.000000"
 preserveAspectRatio="xMidYMid meet">

<g transform="translate(0.000000,115.000000) scale(0.100000,-0.100000)"
fill="#000000" stroke="none">
<path d="M513 1105 c-189 -41 -348 -185 -414 -375 -17 -50 -22 -88 -23 -165 0
-166 50 -291 164 -405 145 -145 360 -198 557 -135 240 76 388 283 387 540 -1
165 -55 288 -179 404 -134 124 -314 175 -492 136z m291 -34 c250 -88 402 -346
357 -607 -36 -206 -207 -389 -406 -434 -28 -7 -88 -12 -135 -12 -138 0 -254
48 -357 145 -319 301 -168 834 262 927 64 14 213 4 279 -19z"/>
<path d="M400 560 l0 -260 100 0 100 0 0 260 0 260 -100 0 -100 0 0 -260z"/>
<path d="M660 560 l0 -260 100 0 100 0 0 260 0 260 -100 0 -100 0 0 -260z"/>
</g>
</svg>
