<?xml version="1.0" standalone="no"?>
<!DOCTYPE svg PUBLIC "-//W3C//DTD SVG 20010904//EN"
 "http://www.w3.org/TR/2001/REC-SVG-20010904/DTD/svg10.dtd">
<svg version="1.0" xmlns="http://www.w3.org/2000/svg"
 width="118.000000pt" height="113.000000pt" viewBox="0 0 118.000000 113.000000"
 preserveAspectRatio="xMidYMid meet">

<g transform="translate(0.000000,113.000000) scale(0.100000,-0.100000)"
fill="#000000" stroke="none">
<path d="M446 1115 c-183 -51 -339 -204 -390 -385 -38 -135 -25 -282 35 -407
45 -92 160 -208 249 -251 71 -35 180 -62 250 -62 131 0 276 59 375 152 122
114 178 239 179 403 0 166 -50 291 -165 406 -73 73 -172 128 -267 148 -71 15
-205 12 -266 -4z m307 -27 c87 -27 168 -79 235 -153 84 -92 129 -197 138 -325
22 -296 -199 -554 -496 -576 -294 -23 -552 199 -577 497 -24 281 188 543 465
577 87 11 151 6 235 -20z"/>
<path d="M404 570 c0 -171 3 -310 7 -310 20 0 529 304 522 311 -7 7 -523 309
-527 309 -1 0 -1 -140 -2 -310z"/>
</g>
</svg>
