<?xml version="1.0" standalone="no"?>
<!DOCTYPE svg PUBLIC "-//W3C//DTD SVG 20010904//EN"
 "http://www.w3.org/TR/2001/REC-SVG-20010904/DTD/svg10.dtd">
<svg version="1.0" xmlns="http://www.w3.org/2000/svg"
 width="114.000000pt" height="114.000000pt" viewBox="0 0 114.000000 114.000000"
 preserveAspectRatio="xMidYMid meet">

<g transform="translate(0.000000,114.000000) scale(0.100000,-0.100000)"
fill="#000000" stroke="none">
<path d="M411 1125 c-79 -22 -168 -73 -232 -133 -331 -306 -176 -864 266 -957
88 -18 142 -18 228 0 199 42 369 205 422 405 19 72 19 211 0 284 -46 176 -177
320 -350 386 -78 30 -253 38 -334 15z m274 -17 c70 -15 178 -73 239 -129 185
-169 224 -475 88 -685 -192 -294 -589 -340 -833 -95 -116 117 -166 249 -156
416 6 111 31 187 93 277 126 185 337 265 569 216z"/>
<path d="M370 729 c-146 -87 -264 -162 -262 -166 2 -4 121 -74 265 -155 l262
-146 5 73 5 74 115 -66 c63 -36 121 -67 128 -70 9 -4 12 61 12 306 0 171 -2
311 -5 311 -2 0 -59 -33 -127 -74 l-123 -75 -5 73 -5 73 -265 -158z"/>
</g>
</svg>
