<?xml version="1.0" standalone="no"?>
<!DOCTYPE svg PUBLIC "-//W3C//DTD SVG 20010904//EN"
 "http://www.w3.org/TR/2001/REC-SVG-20010904/DTD/svg10.dtd">
<svg version="1.0" xmlns="http://www.w3.org/2000/svg"
 width="570.000000pt" height="554.000000pt" viewBox="0 0 570.000000 554.000000"
 preserveAspectRatio="xMidYMid meet">

<g transform="translate(0.000000,554.000000) scale(0.100000,-0.100000)"
fill="red" stroke="none">
<path d="M3635 5280 c10 -16 96 -57 135 -64 19 -4 67 -20 105 -36 39 -16 95
-38 125 -50 30 -12 62 -28 70 -35 8 -7 28 -16 45 -19 36 -9 57 -25 49 -37 -8
-13 -35 -11 -53 5 -19 16 -132 61 -179 71 -18 4 -45 13 -60 21 -15 8 -35 14
-44 14 -10 0 -32 8 -50 18 -18 11 -58 22 -88 26 -53 7 -54 6 -32 -9 13 -9 54
-32 91 -51 139 -69 119 -96 -34 -47 -169 53 -229 66 -395 82 -130 14 -360 14
-360 2 0 -11 67 -25 205 -41 112 -14 199 -31 265 -53 25 -8 86 -25 135 -38
135 -34 308 -109 315 -136 5 -21 92 -85 176 -128 68 -36 184 -119 189 -136 3
-9 25 -29 48 -44 71 -47 217 -158 217 -165 0 -4 25 -27 55 -51 31 -24 73 -71
94 -104 21 -33 54 -76 73 -95 33 -33 118 -151 118 -163 0 -3 20 -36 45 -73 25
-36 45 -70 45 -75 0 -4 13 -27 28 -51 16 -24 39 -77 51 -118 12 -41 29 -93 38
-115 42 -111 83 -247 92 -310 62 -401 48 -720 -45 -1001 -24 -74 -44 -141 -44
-149 0 -8 -9 -32 -20 -52 -11 -21 -20 -45 -20 -53 -1 -18 -28 -73 -97 -195
-28 -49 -63 -112 -78 -140 -46 -84 -97 -156 -164 -235 -92 -107 -258 -269
-327 -321 -32 -23 -83 -62 -111 -86 -70 -56 -200 -140 -293 -187 -41 -22 -81
-44 -89 -50 -7 -6 -30 -16 -50 -24 -196 -71 -277 -93 -645 -174 -147 -32 -716
12 -859 66 -34 13 -80 29 -102 36 -56 16 -107 40 -128 58 -10 9 -28 17 -40 18
-27 2 -60 15 -68 26 -3 5 -27 11 -53 12 -39 3 -53 10 -76 35 -16 17 -37 31
-46 31 -18 0 -115 61 -147 92 -10 10 -32 25 -49 34 -17 9 -41 25 -52 36 -12
11 -58 44 -103 74 -46 30 -89 64 -96 75 -8 10 -63 71 -123 136 -99 106 -154
173 -154 188 0 3 -23 35 -51 72 -28 36 -64 94 -80 129 -16 34 -46 90 -68 123
-21 33 -41 75 -45 94 -3 18 -26 78 -51 132 -25 55 -45 108 -45 117 0 9 -9 37
-20 63 -11 26 -20 57 -20 69 0 13 -9 58 -20 102 -27 101 -35 236 -32 499 2
231 13 339 38 388 9 17 23 56 31 87 26 103 30 115 46 150 28 61 65 164 72 198
6 29 4 33 -10 30 -12 -2 -22 -21 -32 -58 -7 -30 -20 -61 -27 -70 -21 -24 -64
-141 -80 -215 -7 -36 -22 -75 -32 -87 -11 -11 -20 -36 -20 -57 -2 -36 -15
-120 -34 -216 -5 -27 -12 -117 -15 -198 -5 -147 -8 -167 -25 -167 -13 0 -19
43 -25 189 -3 73 -7 137 -10 141 -2 4 4 15 15 25 16 14 20 31 20 82 0 58 16
119 49 183 5 8 5 24 1 35 -4 11 -3 30 1 43 5 13 9 33 9 46 0 12 16 44 35 71
19 27 37 63 41 79 3 17 14 49 24 71 63 137 78 177 73 190 -3 8 -1 15 5 15 5 0
25 33 45 73 19 39 58 99 87 132 29 33 60 73 70 88 9 15 53 65 97 111 54 56 82
93 86 115 7 35 41 70 69 71 11 0 24 15 33 36 29 69 105 143 149 144 10 0 29
10 41 23 52 52 231 177 254 177 17 0 95 38 121 59 l25 20 -35 -9 c-101 -26
-220 -74 -225 -91 -4 -11 -37 -37 -75 -59 -37 -23 -70 -50 -73 -61 -6 -20 -41
-26 -53 -8 -7 12 51 72 106 109 19 14 41 30 48 37 7 7 22 13 32 13 10 0 21 4
25 9 3 5 19 12 35 16 30 7 38 19 21 30 -5 3 -16 -2 -24 -10 -9 -8 -18 -15 -22
-15 -15 0 -114 -52 -126 -66 -7 -8 -39 -31 -73 -50 -33 -20 -65 -41 -71 -48
-5 -7 -29 -27 -53 -45 -23 -18 -42 -37 -42 -42 0 -12 -51 -58 -65 -59 -12 -1
-107 -91 -149 -141 -16 -19 -54 -62 -86 -95 -31 -34 -68 -80 -81 -102 -13 -22
-49 -77 -80 -123 -81 -123 -89 -136 -89 -158 0 -11 -4 -21 -10 -23 -13 -4
-138 -283 -152 -338 -6 -25 -19 -58 -28 -75 -10 -16 -23 -69 -29 -116 -6 -47
-19 -113 -28 -145 -8 -33 -16 -68 -15 -79 0 -20 -6 -63 -28 -190 -10 -54 -10
-113 -1 -262 7 -105 16 -218 22 -250 6 -32 12 -74 15 -93 2 -19 9 -57 15 -85
5 -27 14 -79 20 -114 6 -35 17 -74 25 -87 19 -28 10 -51 -12 -33 -8 6 -14 27
-14 45 0 19 -4 42 -9 52 -20 40 -30 69 -34 102 -3 19 -16 78 -30 130 -17 64
-27 136 -31 220 -8 149 -9 420 -2 440 3 8 7 58 10 110 5 85 10 120 31 225 10
52 27 109 41 141 8 18 21 60 30 95 9 35 31 98 50 140 19 43 34 81 34 86 0 4
12 31 25 58 14 28 25 62 25 77 0 14 3 28 8 30 17 7 103 160 98 173 -3 8 0 15
7 15 18 1 117 140 117 165 0 12 13 41 29 66 44 65 54 76 76 80 10 2 28 21 39
41 12 25 31 42 56 52 53 21 97 61 110 101 6 19 15 35 18 35 4 0 34 26 67 57
70 65 44 55 -30 -12 -27 -24 -53 -45 -57 -45 -3 0 -26 -16 -49 -36 -50 -41
-69 -28 -22 15 16 15 34 33 39 42 5 8 34 34 64 59 30 25 60 49 66 55 50 45
138 107 224 159 175 105 203 122 223 138 33 26 0 22 -49 -6 -23 -13 -57 -26
-77 -30 -19 -4 -70 -29 -111 -56 -42 -28 -81 -50 -85 -50 -20 0 -115 -56 -145
-84 -17 -17 -41 -38 -52 -46 -12 -8 -48 -34 -80 -56 -33 -23 -78 -60 -101 -83
-23 -24 -59 -56 -80 -73 -21 -16 -62 -59 -90 -96 -29 -36 -65 -79 -81 -96 -52
-58 -117 -144 -149 -198 -18 -29 -49 -78 -68 -108 -34 -52 -58 -100 -142 -280
-64 -138 -71 -155 -92 -230 -12 -41 -26 -89 -31 -106 -6 -17 -10 -38 -10 -47
0 -10 -8 -36 -19 -60 -10 -23 -26 -91 -35 -152 -9 -60 -21 -139 -27 -175 -5
-36 -13 -177 -17 -315 l-7 -250 -18 34 c-15 27 -18 46 -12 100 3 36 8 174 10
306 2 192 6 246 19 270 8 17 20 55 25 85 24 130 30 157 44 190 8 19 22 70 32
112 9 42 23 82 31 89 8 6 14 28 14 48 0 21 11 59 24 87 13 27 28 68 35 91 6
23 22 55 34 70 39 49 110 183 102 191 -13 14 -74 -84 -130 -210 -21 -45 -51
-112 -67 -148 -82 -177 -145 -390 -188 -635 -15 -85 -30 -304 -30 -435 0 -117
23 -397 36 -430 3 -8 12 -53 19 -100 8 -47 22 -110 31 -140 8 -30 20 -73 25
-95 30 -126 170 -441 275 -620 123 -211 328 -465 498 -617 108 -97 323 -263
365 -281 14 -6 55 -31 90 -55 69 -47 266 -148 353 -183 227 -88 406 -137 683
-186 146 -25 182 -28 400 -27 203 0 260 3 368 22 204 35 403 88 597 157 74 26
361 165 430 207 92 56 248 163 275 188 17 15 50 41 75 58 59 41 256 235 347
342 123 145 289 393 369 553 57 112 154 335 163 375 4 20 20 80 35 132 52 178
56 195 66 284 6 49 13 93 16 98 10 16 4 553 -6 633 -6 44 -15 109 -19 145 -9
67 -54 247 -69 278 -5 9 -12 33 -16 52 -17 89 -212 500 -238 500 -4 0 -22 33
-41 73 -21 44 -58 99 -93 137 -33 36 -62 69 -66 75 -4 5 -32 39 -63 74 -31 36
-74 90 -97 120 -35 48 -86 96 -172 161 -11 8 -47 40 -80 70 -84 77 -122 103
-218 153 -46 24 -128 69 -183 100 -55 31 -149 77 -209 102 -167 70 -423 130
-401 95z m277 -232 c-9 -9 -15 -9 -24 0 -9 9 -7 12 12 12 19 0 21 -3 12 -12z
m-2866 -757 c-8 -13 -36 -15 -36 -3 0 4 5 13 12 20 14 14 34 0 24 -17z m-856
-1802 c0 -31 -4 -48 -10 -44 -5 3 -10 29 -10 56 0 31 4 48 10 44 6 -3 10 -29
10 -56z m20 -145 c9 -69 33 -172 49 -209 21 -50 54 -166 48 -171 -3 -3 -13 12
-23 33 -10 21 -26 50 -36 65 -13 18 -18 44 -18 87 0 34 -4 61 -10 61 -5 0 -10
13 -10 28 0 15 -4 32 -9 38 -5 5 -12 42 -15 83 -6 93 12 82 24 -15z m350 -370
c0 -8 -4 -12 -10 -9 -5 3 -10 10 -10 16 0 5 5 9 10 9 6 0 10 -7 10 -16z m-210
-114 c0 -9 4 -20 9 -25 4 -6 13 -26 20 -45 l11 -35 -20 25 c-11 14 -20 32 -20
41 0 8 -5 20 -12 27 -16 16 -35 75 -30 92 5 15 42 -55 42 -80z m80 -186 c0 -8
-4 -14 -10 -14 -5 0 -10 9 -10 21 0 11 5 17 10 14 6 -3 10 -13 10 -21z m50
-90 c18 -36 30 -68 27 -70 -6 -6 -20 17 -54 89 -12 26 -18 47 -13 47 4 0 23
-30 40 -66z m66 -117 c4 -12 18 -36 33 -54 45 -55 67 -86 94 -133 15 -25 41
-61 59 -81 68 -74 115 -139 100 -139 -9 0 -82 89 -166 200 -48 65 -156 227
-156 235 0 14 30 -10 36 -28z m368 -477 c87 -86 96 -96 102 -113 3 -9 9 -15
14 -12 5 3 11 1 15 -5 3 -5 0 -10 -7 -10 -7 0 -50 41 -96 90 -85 92 -102 123
-28 50z m259 -228 c45 -42 142 -114 167 -125 8 -4 46 -29 85 -56 38 -27 73
-47 77 -45 10 6 138 -65 167 -93 13 -13 22 -23 19 -23 -16 0 -135 54 -193 89
-38 22 -75 41 -82 41 -7 0 -20 8 -30 19 -31 33 -230 179 -248 183 -10 1 -21
13 -26 26 -13 35 15 28 64 -16z m606 -378 c14 -12 -19 -1 -35 12 -18 14 -18
14 6 3 14 -6 27 -13 29 -15z m64 -19 c31 -7 97 -38 97 -47 0 -17 -33 -9 -90
24 -8 4 -25 12 -37 18 -27 11 -31 25 -5 15 9 -4 25 -8 35 -10z m157 -67 c0 -6
-7 -7 -16 -4 -9 3 -18 6 -20 6 -3 0 -3 4 1 10 7 11 35 2 35 -12z m78 -17 c11
-6 10 -9 -5 -13 -23 -6 -45 1 -37 13 7 11 25 11 42 0z m67 -21 c4 -6 -5 -10
-19 -10 -14 0 -26 5 -26 10 0 6 9 10 19 10 11 0 23 -4 26 -10z m80 -20 c3 -5
-3 -10 -14 -10 -11 0 -23 5 -26 10 -3 6 3 10 14 10 11 0 23 -4 26 -10z m98
-27 c-7 -2 -21 -2 -30 0 -10 3 -4 5 12 5 17 0 24 -2 18 -5z m254 -39 c-3 -3
-12 -4 -19 -1 -8 3 -5 6 6 6 11 1 17 -2 13 -5z m271 -26 c-3 -7 -13 -13 -23
-13 -10 0 -20 6 -22 13 -3 7 5 12 22 12 17 0 25 -5 23 -12z"/>
<path d="M1880 5265 c-16 -19 0 -19 26 0 16 12 16 14 3 15 -9 0 -22 -7 -29
-15z"/>
<path d="M1803 5235 c-18 -8 -33 -17 -33 -20 0 -5 70 21 79 30 9 9 -14 4 -46
-10z"/>
<path d="M629 4453 c-18 -26 -25 -42 -15 -34 24 20 59 71 53 77 -3 3 -20 -16
-38 -43z"/>
<path d="M546 4340 c-30 -45 -33 -58 -10 -39 18 15 48 69 41 75 -2 2 -16 -14
-31 -36z"/>
<path d="M3950 4128 c-133 -69 -169 -93 -266 -175 -67 -58 -131 -108 -179
-139 -22 -15 -63 -47 -90 -73 -68 -62 -104 -92 -141 -118 -17 -12 -95 -86
-174 -164 -107 -106 -145 -138 -154 -129 -8 8 3 24 44 62 30 27 89 83 130 123
42 39 86 77 98 84 12 6 28 24 36 39 8 16 34 41 57 58 23 16 55 41 72 56 16 16
33 28 37 28 4 0 10 9 13 19 2 11 22 30 43 44 22 13 64 51 94 83 30 32 66 66
81 74 81 48 119 83 105 97 -5 6 -139 -82 -156 -102 -8 -10 -40 -35 -71 -56
-32 -21 -59 -42 -61 -47 -1 -4 -17 -16 -34 -27 -17 -11 -58 -43 -90 -72 -216
-191 -279 -248 -364 -330 -52 -51 -102 -93 -110 -93 -24 1 -54 21 -107 71 -26
25 -59 51 -72 59 -13 7 -75 60 -136 119 -146 138 -313 261 -450 331 -60 30
-138 74 -172 97 -62 41 -236 125 -284 137 -17 4 -31 1 -38 -8 -13 -16 -4 -46
14 -46 14 0 71 -47 65 -54 -3 -2 -23 3 -45 11 -83 31 -85 30 -85 -16 0 -25 -5
-44 -13 -47 -8 -3 -42 13 -78 34 -118 71 -159 83 -159 49 0 -15 104 -125 143
-152 23 -16 27 -25 23 -48 -5 -23 3 -36 55 -86 35 -35 72 -61 90 -65 16 -3 42
-19 57 -34 15 -16 59 -49 97 -74 39 -25 79 -55 89 -66 11 -12 24 -22 31 -22 6
0 20 -8 31 -18 10 -10 51 -44 89 -77 124 -104 485 -477 485 -500 0 -18 -261
-328 -353 -420 -39 -38 -94 -101 -123 -140 -29 -38 -71 -93 -93 -120 -22 -28
-67 -103 -100 -168 -33 -64 -68 -129 -79 -144 -31 -47 -40 -64 -97 -180 -54
-110 -67 -164 -43 -179 13 -8 68 51 68 73 0 7 7 13 16 13 11 0 14 -5 9 -17
-23 -61 -35 -105 -30 -114 4 -5 21 -7 40 -3 19 3 35 1 39 -5 6 -9 -51 -129
-75 -158 -6 -6 -14 -25 -19 -43 -21 -72 65 -32 141 67 36 46 46 53 68 48 22
-4 36 5 85 52 32 32 66 74 74 93 16 38 96 159 153 230 215 270 176 227 380
423 85 81 184 176 220 212 60 59 109 84 109 55 0 -5 7 -10 16 -10 15 0 126
-105 174 -166 66 -84 194 -230 211 -241 10 -8 44 -47 75 -89 31 -41 64 -79 75
-84 10 -6 35 -39 54 -75 61 -108 128 -134 78 -30 -9 19 -20 35 -25 35 -4 0
-19 21 -32 48 -14 26 -39 67 -55 92 -17 25 -31 51 -31 58 0 38 77 -18 102 -74
10 -24 23 -46 28 -49 6 -4 17 -23 26 -43 8 -20 32 -55 53 -77 21 -22 50 -65
64 -95 14 -31 36 -60 49 -66 71 -35 88 -47 88 -65 0 -10 11 -25 23 -34 13 -8
29 -26 35 -40 6 -14 16 -25 22 -25 20 0 10 47 -15 70 -25 23 -35 70 -15 70 6
0 22 -12 37 -26 41 -41 39 -19 -3 42 -21 32 -64 94 -94 138 -31 45 -87 121
-125 169 -39 49 -81 105 -95 126 -14 20 -49 66 -79 102 -56 67 -79 105 -68
115 8 8 78 -49 92 -75 12 -23 147 -171 257 -283 53 -54 82 -76 93 -72 12 5 20
-4 32 -35 9 -24 25 -43 37 -47 12 -4 24 -12 28 -18 4 -6 10 -8 13 -4 4 3 -1
18 -10 32 -16 24 -16 26 0 32 12 5 38 -15 96 -72 43 -43 80 -76 83 -73 10 10
-130 279 -173 329 -25 30 -73 89 -106 130 -33 41 -66 79 -72 83 -7 4 -13 12
-13 18 0 10 -73 101 -139 174 -20 22 -49 58 -66 80 -16 22 -101 111 -187 199
-87 87 -158 161 -158 162 0 2 7 4 16 4 9 0 70 -57 137 -127 67 -71 148 -154
181 -186 32 -32 70 -75 83 -94 14 -20 58 -68 99 -106 41 -38 74 -73 74 -79 0
-16 67 -93 93 -107 14 -7 34 -30 46 -52 23 -41 100 -123 108 -116 2 3 -10 25
-27 48 -128 180 -192 264 -277 361 -54 62 -109 126 -123 143 -14 16 -61 68
-106 115 -45 47 -118 123 -162 170 -45 47 -82 93 -82 102 0 42 82 132 216 234
27 21 71 61 98 91 27 30 68 65 91 79 24 14 63 46 87 72 23 26 65 59 92 73 47
25 87 71 73 85 -10 10 -62 -15 -88 -42 -12 -13 -29 -24 -36 -24 -12 0 -91 -47
-103 -61 -12 -15 -53 -30 -60 -22 -12 12 16 72 37 79 39 13 85 40 94 55 4 9
21 19 37 22 16 3 51 25 78 49 27 24 70 52 96 62 44 16 75 50 100 109 4 9 18
21 30 26 13 5 36 23 51 40 16 17 33 31 38 31 5 0 9 5 9 11 0 16 -62 -1 -81
-22 -16 -19 -59 -27 -59 -11 0 16 32 52 46 52 8 0 14 5 14 10 0 20 -29 9 -77
-29 -27 -21 -87 -64 -133 -95 -87 -57 -148 -102 -210 -154 -19 -16 -61 -46
-93 -66 -31 -20 -80 -57 -108 -82 -49 -44 -96 -70 -107 -60 -6 7 57 79 76 86
36 15 349 321 363 357 5 13 22 30 38 36 17 6 32 18 34 26 3 9 8 24 12 35 8 17
6 17 -23 2 -17 -9 -33 -12 -36 -7 -7 10 122 157 146 166 16 6 34 36 20 34 -4
-1 -68 -32 -142 -71z"/>
</g>
</svg>
