<?xml version="1.0" standalone="no"?>
<!DOCTYPE svg PUBLIC "-//W3C//DTD SVG 20010904//EN"
 "http://www.w3.org/TR/2001/REC-SVG-20010904/DTD/svg10.dtd">
<svg version="1.0" xmlns="http://www.w3.org/2000/svg"
 viewBox="0 0 386.000000 45.000000"
 preserveAspectRatio="xMidYMid meet">

  <defs>
    <filter id="shadow" x="-50%" y="-50%" width="200%" height="200%">
      <feDropShadow dx="10" dy="15" stdDeviation="20" flood-color="rgb(140, 140, 140)"/>
    </filter>
  </defs>

<g transform="translate(0.000000,45.000000) scale(0.100000,-0.100000)"
fill="#000000" stroke="none">
<path d="M60 380 c0 -6 39 -10 98 -9 63 0 90 3 77 9 -28 12 -175 12 -175 0z"/>
<path d="M370 380 c0 -5 23 -10 50 -10 28 0 50 5 50 10 0 6 -22 10 -50 10 -27
0 -50 -4 -50 -10z"/>
<path d="M550 380 c0 -5 23 -10 50 -10 28 0 50 5 50 10 0 6 -22 10 -50 10 -27
0 -50 -4 -50 -10z"/>
<path d="M820 380 c-16 -5 9 -8 70 -8 64 0 85 3 65 8 -39 10 -104 10 -135 0z"/>
<path d="M1100 380 c0 -6 48 -10 125 -10 77 0 125 4 125 10 0 6 -48 10 -125
10 -77 0 -125 -4 -125 -10z"/>
<path d="M1480 380 c-16 -5 8 -8 70 -8 62 0 86 3 70 8 -14 4 -45 8 -70 8 -25
0 -56 -4 -70 -8z"/>
<path d="M2070 380 c-17 -5 0 -8 55 -8 53 0 73 2 60 8 -25 11 -82 11 -115 0z"/>
<path d="M2300 380 c0 -6 43 -10 110 -10 67 0 110 4 110 10 0 6 -43 10 -110
10 -67 0 -110 -4 -110 -10z"/>
<path d="M2610 380 c0 -6 35 -10 85 -10 50 0 85 4 85 10 0 6 -35 10 -85 10
-50 0 -85 -4 -85 -10z"/>
<path d="M2870 380 c0 -6 44 -10 113 -9 71 1 103 4 87 9 -37 12 -200 12 -200
0z"/>
<path d="M3290 380 c-16 -5 6 -8 65 -8 59 0 81 3 65 8 -14 4 -43 8 -65 8 -22
0 -51 -4 -65 -8z"/>
<path d="M3520 380 c0 -5 23 -10 50 -10 28 0 50 5 50 10 0 6 -22 10 -50 10
-27 0 -50 -4 -50 -10z"/>
<path d="M3700 380 c0 -5 23 -10 50 -10 28 0 50 5 50 10 0 6 -22 10 -50 10
-27 0 -50 -4 -50 -10z"/>
<path filter="url(#shadow)" d="M60 215 l0 -125 50 0 c43 0 50 3 50 20 0 16 7 20 38 20 88 0 141 78
111 163 l-14 42 -117 3 -118 3 0 -126z m151 64 c15 -29 -3 -69 -31 -69 -17 0
-20 7 -20 45 0 38 3 45 20 45 10 0 24 -10 31 -21z"/>
<path filter="url(#shadow)" d="M370 215 l0 -125 50 0 50 0 0 40 0 40 40 0 40 0 0 -40 0 -40 50 0 50
0 0 125 0 125 -50 0 -50 0 0 -40 0 -40 -40 0 -40 0 0 40 0 40 -50 0 -50 0 0
-125z"/>
<path filter="url(#shadow)" d="M728 308 c-33 -47 -33 -149 0 -196 l24 -33 135 3 136 3 21 28 c30 41
30 153 0 194 l-21 28 -136 3 -135 3 -24 -33z m211 -34 c46 -59 13 -154 -54
-154 -43 0 -75 38 -75 90 0 81 83 122 129 64z"/>
<path filter="url(#shadow)" d="M1087 320 c-5 -18 0 -20 39 -20 l44 0 0 -105 0 -105 50 0 50 0 0 104
0 105 32 3 c22 2 34 9 36 21 3 15 -8 17 -121 17 -116 0 -125 -1 -130 -20z"/>
<path filter="url(#shadow)" d="M1395 312 c-28 -38 -29 -164 -1 -204 l18 -28 138 0 138 0 22 35 c16
26 22 51 22 95 0 44 -6 69 -22 95 l-22 35 -136 0 -137 -1 -20 -27z m205 -32
c56 -56 24 -160 -50 -160 -34 0 -67 28 -76 65 -14 57 24 115 76 115 17 0 39
-9 50 -20z"/>
<path filter="url(#shadow)" d="M2016 324 c-21 -55 2 -96 82 -144 29 -18 51 -37 49 -44 -6 -18 -53
-19 -80 -2 -22 15 -24 14 -45 -14 -12 -16 -22 -32 -22 -35 0 -3 54 -5 119 -5
130 0 131 1 131 61 0 33 -21 57 -93 106 -26 18 -47 37 -47 43 0 13 36 13 59 0
14 -7 24 -3 46 20 l29 30 -111 0 c-92 0 -112 -3 -117 -16z"/>
<path filter="url(#shadow)" d="M2300 210 l0 -130 110 0 c103 0 110 1 110 20 0 18 -7 20 -60 20 l-60
0 0 30 c0 28 2 30 40 30 35 0 40 3 46 28 3 15 7 33 10 40 2 8 -11 12 -46 12
-43 0 -50 3 -50 20 0 18 7 20 55 20 48 0 55 2 55 20 0 19 -7 20 -105 20 l-105
0 0 -130z"/>
<path filter="url(#shadow)" d="M2600 336 c0 -5 -38 -193 -45 -223 -5 -22 -2 -23 50 -23 48 0 55 2
55 20 0 16 7 20 35 20 28 0 35 -4 35 -20 0 -17 7 -20 50 -20 31 0 50 4 50 12
0 6 -10 62 -21 125 l-21 113 -94 0 c-52 0 -94 -2 -94 -4z m104 -52 c3 -9 6
-29 6 -45 0 -23 -4 -29 -21 -29 -15 0 -19 4 -15 16 3 9 6 29 6 45 0 31 14 39
24 13z"/>
<path filter="url(#shadow)" d="M2870 215 l0 -125 49 0 50 0 3 43 4 42 19 -42 c18 -43 18 -43 71 -43
l54 0 -23 46 -22 46 27 19 c32 23 44 72 29 112 l-11 27 -125 0 -125 0 0 -125z
m155 60 c0 -14 -8 -21 -27 -23 -24 -3 -28 0 -28 23 0 23 4 26 28 23 19 -2 27
-9 27 -23z"/>
<path filter="url(#shadow)" d="M3200 308 c-25 -41 -34 -88 -26 -131 3 -17 15 -47 26 -64 l20 -33
130 0 131 0 -27 35 c-30 39 -36 42 -54 20 -19 -23 -68 -18 -95 10 -72 72 19
200 99 140 18 -14 22 -13 48 12 15 15 28 30 28 35 0 4 -59 8 -130 8 l-130 0
-20 -32z"/>
<path filter="url(#shadow)" d="M3520 215 l0 -125 50 0 50 0 0 40 0 40 40 0 40 0 0 -40 0 -40 50 0
50 0 0 125 0 125 -50 0 -50 0 0 -40 0 -40 -40 0 -40 0 0 40 0 40 -50 0 -50 0
0 -125z"/>
<path d="M60 50 c0 -5 23 -10 50 -10 28 0 50 5 50 10 0 6 -22 10 -50 10 -27 0
-50 -4 -50 -10z"/>
<path d="M370 50 c0 -5 23 -10 50 -10 28 0 50 5 50 10 0 6 -22 10 -50 10 -27
0 -50 -4 -50 -10z"/>
<path d="M550 50 c0 -5 23 -10 50 -10 28 0 50 5 50 10 0 6 -22 10 -50 10 -27
0 -50 -4 -50 -10z"/>
<path d="M837 47 c29 -7 60 -7 95 0 51 10 50 10 -42 10 -86 1 -91 0 -53 -10z"/>
<path d="M1170 50 c0 -5 23 -10 50 -10 28 0 50 5 50 10 0 6 -22 10 -50 10 -27
0 -50 -4 -50 -10z"/>
<path d="M1480 50 c14 -4 45 -8 70 -8 25 0 56 4 70 8 16 5 -8 8 -70 8 -62 0
-86 -3 -70 -8z"/>
<path d="M2055 50 c41 -10 116 -10 140 0 13 6 -14 8 -75 8 -64 0 -85 -3 -65
-8z"/>
<path d="M2300 50 c0 -6 42 -10 105 -10 63 0 105 4 105 10 0 6 -42 10 -105 10
-63 0 -105 -4 -105 -10z"/>
<path d="M2540 50 c0 -5 25 -10 55 -10 30 0 55 5 55 10 0 6 -25 10 -55 10 -30
0 -55 -4 -55 -10z"/>
<path d="M2740 50 c0 -5 23 -10 50 -10 28 0 50 5 50 10 0 6 -22 10 -50 10 -27
0 -50 -4 -50 -10z"/>
<path d="M2870 50 c0 -5 23 -10 50 -10 28 0 50 5 50 10 0 6 -22 10 -50 10 -27
0 -50 -4 -50 -10z"/>
<path d="M3030 50 c0 -5 25 -10 55 -10 30 0 55 5 55 10 0 6 -25 10 -55 10 -30
0 -55 -4 -55 -10z"/>
<path d="M3290 50 c14 -4 45 -8 70 -8 25 0 56 4 70 8 16 5 -8 8 -70 8 -62 0
-86 -3 -70 -8z"/>
<path d="M3520 50 c0 -5 23 -10 50 -10 28 0 50 5 50 10 0 6 -22 10 -50 10 -27
0 -50 -4 -50 -10z"/>
<path d="M3700 50 c0 -5 23 -10 50 -10 28 0 50 5 50 10 0 6 -22 10 -50 10 -27
0 -50 -4 -50 -10z"/>
</g>
</svg>
