<?xml version="1.0" standalone="no"?>
<!DOCTYPE svg PUBLIC "-//W3C//DTD SVG 20010904//EN"
 "http://www.w3.org/TR/2001/REC-SVG-20010904/DTD/svg10.dtd">
<svg version="1.0" xmlns="http://www.w3.org/2000/svg"
 width="650.000000pt" height="758.000000pt" viewBox="0 0 650.000000 758.000000"
 preserveAspectRatio="xMidYMid meet">

<g transform="translate(0.000000,758.000000) scale(0.100000,-0.100000)"
fill="#000000" stroke="none">
<path d="M1965 7329 c-530 -64 -1013 -346 -1342 -784 -53 -70 -178 -293 -170
-301 2 -3 25 28 52 67 26 39 55 73 64 77 18 6 34 24 124 134 34 42 67 75 73
73 6 -2 11 4 10 12 0 9 5 18 13 21 9 3 11 0 6 -9 -4 -8 23 16 61 52 100 96
191 169 286 231 125 82 196 120 209 112 7 -4 9 -3 6 3 -4 6 4 15 18 21 17 8
25 8 27 0 3 -8 10 -8 26 1 43 23 239 90 322 110 479 114 982 37 1388 -211 192
-117 375 -284 512 -466 422 -562 481 -1309 152 -1949 -15 -29 -30 -53 -34 -53
-12 0 -11 4 27 70 19 34 35 64 35 66 0 2 11 27 24 56 88 194 146 478 146 718
0 640 -335 1225 -892 1553 -183 109 -392 183 -623 224 -148 25 -442 23 -595
-5 -364 -67 -698 -242 -960 -502 -259 -258 -435 -595 -500 -960 -149 -835 315
-1666 1105 -1979 193 -76 381 -115 600 -124 119 -6 111 -4 -133 23 -217 24
-397 78 -599 180 -119 61 -258 151 -337 220 -68 59 -226 223 -226 234 0 3 -18
24 -40 48 -22 23 -38 48 -35 55 2 8 1 11 -4 8 -5 -3 -12 4 -16 15 -3 11 -15
25 -26 30 -10 6 -19 16 -19 23 0 7 4 6 10 -3 5 -8 10 -10 10 -4 0 5 -7 19 -16
30 -8 10 -12 12 -8 4 7 -13 5 -13 -8 -2 -9 8 -14 20 -11 28 3 7 -2 17 -11 20
-9 3 -16 14 -16 24 0 11 -5 22 -11 25 -6 4 -8 13 -5 20 3 8 2 15 -2 17 -12 5
-52 74 -52 90 0 18 -37 95 -49 102 -4 3 -6 18 -3 32 3 17 1 25 -6 20 -6 -4 -8
2 -4 16 3 11 1 19 -4 16 -5 -4 -10 7 -11 24 -1 16 -14 67 -28 114 -15 46 -24
88 -20 94 3 5 2 10 -3 10 -6 0 -8 18 -5 42 4 24 2 39 -3 35 -14 -8 -9 417 6
488 6 33 13 69 15 80 8 58 39 163 48 158 5 -3 6 3 3 14 -10 31 83 260 99 245
5 -4 5 1 2 11 -4 9 -2 17 4 17 5 0 9 6 7 13 -3 11 86 165 102 177 4 3 13 16
20 30 24 45 105 139 117 135 7 -2 10 2 7 9 -5 14 163 180 251 247 338 256 777
389 1193 359 308 -22 624 -129 869 -296 295 -201 519 -468 649 -774 241 -570
183 -1205 -158 -1712 -77 -114 -86 -125 -218 -261 -117 -121 -123 -127 -95
-107 32 23 208 201 245 248 43 54 130 184 130 195 0 4 4 7 10 7 5 0 6 -8 3
-17 -9 -24 -98 -154 -155 -227 -26 -33 -45 -63 -42 -68 3 -4 -1 -8 -9 -8 -17
0 -60 -57 -52 -69 3 -5 -4 -12 -15 -16 -11 -3 -20 -12 -20 -19 0 -6 -22 -35
-48 -63 -26 -28 -46 -55 -44 -61 2 -6 -6 -16 -17 -22 -12 -6 -21 -20 -21 -30
0 -11 -7 -20 -15 -20 -18 0 -20 -16 -2 -23 10 -4 10 -6 0 -6 -7 -1 -13 -8 -13
-17 0 -10 -6 -14 -15 -10 -11 4 -15 -2 -15 -22 1 -23 2 -24 11 -10 5 10 24 24
42 33 84 40 249 186 378 336 182 209 327 491 398 774 203 808 -125 1657 -819
2120 -101 67 -335 184 -440 219 -98 33 -214 62 -325 82 -108 19 -433 27 -550
13z"/>
<path d="M580 6851 c0 -6 4 -13 10 -16 6 -3 7 1 4 9 -7 18 -14 21 -14 7z"/>
<path d="M536 6808 c-15 -18 -35 -42 -45 -53 -136 -149 -295 -436 -375 -676
-229 -686 -108 -1436 325 -2013 355 -471 878 -779 1461 -861 141 -20 441 -20
590 0 235 31 513 119 716 226 98 52 124 52 43 0 -62 -40 -79 -60 -87 -99 -5
-26 -1 -36 24 -62 41 -40 85 -40 140 0 23 17 45 30 49 30 10 0 63 -66 63 -78
0 -5 -9 -17 -20 -27 -30 -27 -27 -78 6 -104 31 -25 49 -26 86 -7 16 9 30 11
33 5 4 -5 -1 -12 -10 -15 -9 -4 -22 -19 -30 -34 -12 -23 -12 -31 1 -56 8 -16
21 -32 27 -36 20 -13 61 -9 84 7 20 14 23 13 47 -18 31 -41 31 -45 7 -71 -40
-43 -36 -65 27 -151 114 -154 386 -521 518 -700 219 -294 691 -933 762 -1030
219 -298 391 -526 429 -569 24 -27 43 -58 43 -71 0 -26 74 -125 93 -125 18 0
57 -55 57 -81 0 -24 62 -114 86 -123 39 -15 86 -3 189 48 156 77 276 160 393
271 185 176 252 278 222 335 -21 40 -82 100 -101 100 -19 0 -36 23 -55 77 -15
43 -62 97 -99 114 -16 8 -39 29 -50 47 -25 42 -91 124 -394 491 -135 163 -293
355 -352 426 -296 359 -470 571 -555 675 -51 63 -203 248 -337 410 -217 263
-247 295 -275 298 -28 3 -51 -11 -170 -105 -75 -60 -164 -129 -197 -154 -33
-24 -62 -46 -65 -49 -3 -4 -26 -21 -52 -39 -44 -31 -48 -32 -64 -17 -9 9 -14
20 -10 23 3 3 0 13 -6 21 -13 15 4 33 107 120 27 22 17 18 -28 -13 -66 -46
-96 -54 -65 -18 17 20 14 38 -10 66 -10 11 -11 17 -4 17 7 0 12 8 12 17 0 14
-3 13 -23 -5 -13 -12 -27 -22 -31 -22 -4 0 -20 -9 -35 -21 -27 -20 -28 -22
-12 -39 35 -37 51 -61 51 -75 0 -25 -17 -17 -40 20 -12 19 -31 42 -43 51 l-22
15 24 17 c13 9 40 33 60 52 19 19 31 29 26 21 -5 -10 -4 -12 4 -7 6 4 9 11 6
15 -2 5 17 26 42 47 26 22 59 50 73 63 l25 23 -30 -21 c-102 -73 -160 -110
-164 -105 -3 3 5 13 18 23 l23 18 -23 36 c-13 20 -28 37 -33 37 -14 0 -116
-72 -116 -82 0 -4 -4 -8 -10 -8 -22 0 -6 18 65 74 57 44 73 62 65 71 -8 9 -7
14 2 17 8 3 6 7 -6 11 -10 4 -15 3 -11 -3 3 -6 1 -10 -4 -10 -6 0 -11 8 -12
18 0 9 -2 24 -3 32 -2 9 56 65 146 140 82 68 154 131 161 139 7 9 -13 -5 -43
-30 -59 -48 -267 -204 -313 -234 -15 -10 -31 -14 -35 -10 -4 4 0 10 8 13 21 8
108 95 88 88 -10 -3 -18 -1 -18 3 0 13 31 22 44 14 7 -5 3 0 -7 9 -11 10 -24
15 -31 11 -6 -3 -6 -1 2 8 16 17 16 37 0 21 -7 -7 -16 -12 -22 -12 -5 0 -1 6
9 14 11 8 25 12 32 9 7 -3 13 -1 13 5 0 5 -7 13 -16 16 -8 3 -12 10 -9 16 4 6
11 7 17 4 7 -4 8 -2 4 5 -5 7 -12 9 -19 3 -7 -5 -41 -31 -77 -58 -82 -62 -190
-136 -190 -130 0 2 57 50 128 106 70 56 156 125 192 153 195 156 410 432 514
662 15 33 34 72 42 88 8 15 13 31 9 36 -3 5 -1 12 5 16 13 8 13 25 0 25 -5 0
-10 -7 -10 -16 0 -10 -6 -14 -15 -10 -10 3 -15 -1 -15 -13 0 -11 -3 -21 -8
-23 -4 -1 -27 -43 -52 -93 -197 -393 -559 -752 -959 -950 -485 -241 -1100
-283 -1625 -110 -499 164 -926 512 -1186 966 -209 366 -310 799 -280 1211 18
254 55 428 134 636 45 119 146 314 214 414 33 50 49 84 46 95 -4 13 -3 14 3 5
7 -10 20 1 48 42 21 31 42 56 46 56 4 0 9 7 13 15 4 13 2 14 -14 5 -25 -13
-27 5 -3 19 10 5 15 12 12 16 -4 3 -19 -9 -33 -27z m4 -28 c0 -5 -5 -10 -11
-10 -5 0 -7 5 -4 10 3 6 8 10 11 10 2 0 4 -4 4 -10z m3670 -2259 c0 -6 -4 -13
-10 -16 -5 -3 -10 1 -10 9 0 9 5 16 10 16 6 0 10 -4 10 -9z m-620 -875 c0 -3
-4 -8 -10 -11 -5 -3 -10 -1 -10 4 0 6 5 11 10 11 6 0 10 -2 10 -4z m-47 -462
c16 -19 26 -38 22 -42 -6 -6 -35 25 -56 61 -17 30 5 18 34 -19z"/>
<path d="M151 5704 c0 -11 3 -14 6 -6 3 7 2 16 -1 19 -3 4 -6 -2 -5 -13z"/>
<path d="M126 5599 c-10 -96 -7 -385 4 -479 63 -511 321 -988 721 -1333 193
-166 489 -327 744 -403 186 -56 308 -75 531 -81 232 -6 336 2 521 43 168 37
415 125 456 162 11 9 21 15 24 13 8 -6 184 95 219 126 13 12 26 18 30 14 4 -3
4 0 0 7 -5 8 -1 12 11 12 15 0 16 2 3 10 -10 6 -17 5 -23 -5 -5 -9 -23 -15
-47 -15 -21 0 -42 -5 -45 -10 -3 -6 -18 -7 -32 -4 -17 5 -24 3 -20 -3 4 -6 -1
-17 -10 -24 -15 -12 -16 -12 -10 4 4 10 3 16 -2 12 -5 -3 -12 -1 -16 5 -11 17
-38 12 -31 -6 5 -12 2 -15 -11 -10 -14 6 -123 -33 -188 -67 -35 -18 -207 -74
-295 -96 -206 -50 -490 -65 -715 -36 -568 74 -1076 393 -1389 871 -208 319
-331 737 -326 1107 0 48 -3 87 -8 87 -5 0 -17 18 -27 40 -10 22 -21 40 -26 40
-4 0 -10 18 -14 40 -10 58 -21 49 -29 -21z m15 -26 c-12 -20 -14 -14 -5 12 4
9 9 14 11 11 3 -2 0 -13 -6 -23z m56 -105 c-3 -7 -5 -2 -5 12 0 14 2 19 5 13
2 -7 2 -19 0 -25z m3133 -1816 c0 -11 -51 -35 -58 -27 -3 3 0 5 6 5 6 0 9 7 6
15 -5 11 1 15 20 15 14 0 26 -4 26 -8z m-70 -36 c0 -2 -7 -6 -15 -10 -8 -3
-15 -1 -15 4 0 6 7 10 15 10 8 0 15 -2 15 -4z"/>
<path d="M3308 3977 c-20 -20 -190 -134 -221 -148 -15 -7 -27 -16 -27 -20 0
-11 55 20 135 74 89 60 149 107 137 107 -6 0 -17 -6 -24 -13z"/>
<path d="M2975 3772 c-17 -10 -44 -24 -60 -30 -17 -6 -23 -11 -15 -11 17 -1
120 45 120 54 0 9 -15 5 -45 -13z"/>
<path d="M3444 3726 c-10 -8 -17 -16 -14 -19 3 -2 14 4 24 14 23 22 18 25 -10
5z"/>
<path d="M3659 3723 c-13 -16 -12 -17 4 -4 16 13 21 21 13 21 -2 0 -10 -8 -17
-17z"/>
<path d="M2865 3720 c-3 -5 -1 -10 4 -10 6 0 11 5 11 10 0 6 -2 10 -4 10 -3 0
-8 -4 -11 -10z"/>
<path d="M2765 3686 c-51 -18 -137 -42 -195 -55 l-45 -10 49 4 c48 5 246 61
246 70 0 7 -11 5 -55 -9z"/>
<path d="M2435 3610 c-27 -5 -81 -9 -120 -9 -39 -1 -65 -5 -60 -10 11 -9 192
5 240 19 37 10 8 10 -60 0z"/>
</g>
</svg>
